<mxfile host="app.diagrams.net" modified="2024-05-06T22:32:36.192Z" agent="Mozilla/5.0 (Macintosh; Intel Mac OS X 10.15; rv:124.0) Gecko/20100101 Firefox/124.0" version="24.3.0" etag="J7V0aI8PmqspYam5qJYf" type="github">
  <diagram name="Page-1" id="lkQUyUAuxnRBny1WNaCA">
    <mxGraphModel>
      <root>
        <mxCell id="0" />
        <mxCell id="1" parent="0" />
      </root>
    </mxGraphModel>
  </diagram>
</mxfile>
